<?xml version="1.0" encoding="UTF-8"?><svg xmlns="http://www.w3.org/2000/svg" viewBox="0 0 900 700" width="900" height="700" role="img" aria-labelledby="ttl">
  <title id="ttl">Coterie host map</title>
  <defs>
    <marker id="arrA" viewBox="0 0 10 10" refX="9" refY="5" markerWidth="7" markerHeight="7" orient="auto-start-reverse"><path d="M0,0 L10,5 L0,10 z" fill="#7f8b94"></path></marker>
  </defs>
  <rect width="900" height="700" fill="#f3f5f7"></rect>
  <rect x="28.5" y="130.5" width="855" height="544" fill="none" stroke="#d3dae0"></rect>
  <rect x="640" y="122" width="232" height="17" fill="#f3f5f7"></rect>
  <text x="864" y="135" text-anchor="end" font-family="JetBrains Mono, ui-monospace, monospace" font-size="11" fill="#5b666f" letter-spacing="0.06em">one Debian host (LXC is enough)</text>

  <rect x="48" y="186" width="276" height="300" fill="#eaeef2" stroke="#dbe2e8"></rect>
  <rect x="48" y="178" width="76" height="17" fill="#bda9a3"></rect>
  <text x="56" y="191" font-family="JetBrains Mono, ui-monospace, monospace" font-size="11" font-weight="500" fill="#1e2328">portal/</text>
  <rect x="366" y="186" width="276" height="300" fill="#eaeef2" stroke="#dbe2e8"></rect>
  <rect x="366" y="178" width="84" height="17" fill="#a8b2a2"></rect>
  <text x="374" y="191" font-family="JetBrains Mono, ui-monospace, monospace" font-size="11" font-weight="500" fill="#1e2328">memory/</text>
  <rect x="664" y="186" width="204" height="300" fill="#eaeef2" stroke="#dbe2e8"></rect>
  <rect x="664" y="178" width="124" height="17" fill="#afabbc"></rect>
  <text x="672" y="191" font-family="JetBrains Mono, ui-monospace, monospace" font-size="11" font-weight="500" fill="#1e2328">hookandshield/</text>

  <rect x="116" y="48" width="140" height="44" rx="22" fill="#fafcfe" stroke="#ccd5dc"></rect>
  <text x="186" y="75" text-anchor="middle" font-family="Archivo, Helvetica, Arial, sans-serif" font-size="13" font-weight="600" fill="#1e2328">Operator's browser</text>

  <rect x="66" y="206" width="240" height="52" fill="#fafcfe" stroke="#ccd5dc"></rect>
  <text x="80" y="227" font-family="Archivo, Helvetica, Arial, sans-serif" font-size="13" font-weight="600" fill="#1e2328">Caddy</text>
  <text x="80" y="244" font-family="JetBrains Mono, ui-monospace, monospace" font-size="9.5" fill="#5b666f">TLS · password · client allowlist</text>
  <rect x="66" y="310" width="240" height="62" fill="#fafcfe" stroke="#ccd5dc"></rect>
  <text x="80" y="333" font-family="Archivo, Helvetica, Arial, sans-serif" font-size="13" font-weight="600" fill="#1e2328">ttyd ⇆ tmux ⇆ Claude Code</text>
  <text x="80" y="352" font-family="JetBrains Mono, ui-monospace, monospace" font-size="9.5" fill="#5b666f">one persistent pane per agent</text>
  <rect x="66" y="410" width="240" height="72" fill="#fafcfe" stroke="#ccd5dc"></rect>
  <text x="80" y="433" font-family="Archivo, Helvetica, Arial, sans-serif" font-size="13" font-weight="600" fill="#1e2328">chorusd — orchestrator</text>
  <text x="80" y="452" font-family="JetBrains Mono, ui-monospace, monospace" font-size="9.5" fill="#5b666f">chorus rounds · doorbell</text>
  <text x="80" y="466" font-family="JetBrains Mono, ui-monospace, monospace" font-size="9.5" fill="#5b666f">Matron endpoint</text>

  <rect x="384" y="310" width="240" height="62" fill="#fafcfe" stroke="#ccd5dc"></rect>
  <text x="398" y="333" font-family="Archivo, Helvetica, Arial, sans-serif" font-size="13" font-weight="600" fill="#1e2328">persMEM — MCP memory server</text>
  <text x="398" y="352" font-family="JetBrains Mono, ui-monospace, monospace" font-size="9.5" fill="#5b666f">identity · standing directives</text>
  <text x="398" y="366" font-family="JetBrains Mono, ui-monospace, monospace" font-size="9.5" fill="#5b666f">project state · handoffs</text>
  <rect x="384" y="206" width="120" height="60" fill="#fafcfe" stroke="#ccd5dc"></rect>
  <text x="396" y="228" font-family="Archivo, Helvetica, Arial, sans-serif" font-size="12" font-weight="600" fill="#1e2328">boot manifest</text>
  <text x="396" y="246" font-family="JetBrains Mono, ui-monospace, monospace" font-size="9.5" fill="#5b666f">+ history</text>
  <rect x="504" y="206" width="120" height="60" fill="#fafcfe" stroke="#ccd5dc"></rect>
  <text x="516" y="228" font-family="Archivo, Helvetica, Arial, sans-serif" font-size="12" font-weight="600" fill="#1e2328">AMQ</text>
  <text x="516" y="246" font-family="JetBrains Mono, ui-monospace, monospace" font-size="9.5" fill="#5b666f">atomic Maildir</text>
  <text x="516" y="259" font-family="JetBrains Mono, ui-monospace, monospace" font-size="9.5" fill="#5b666f">queue</text>

  <rect x="680" y="206" width="184" height="72" fill="#fafcfe" stroke="#ccd5dc"></rect>
  <text x="692" y="229" font-family="Archivo, Helvetica, Arial, sans-serif" font-size="12.5" font-weight="600" fill="#1e2328">settings-hook</text>
  <text x="692" y="246" font-family="Archivo, Helvetica, Arial, sans-serif" font-size="12.5" font-weight="600" fill="#1e2328">baselines</text>
  <text x="692" y="266" font-family="JetBrains Mono, ui-monospace, monospace" font-size="9.5" fill="#5b666f">canonical hash · IOC scan</text>
  <rect x="680" y="320" width="184" height="56" fill="#fafcfe" stroke="#ccd5dc"></rect>
  <text x="692" y="343" font-family="Archivo, Helvetica, Arial, sans-serif" font-size="12.5" font-weight="600" fill="#1e2328">CLAUDE.md baseline</text>
  <text x="692" y="361" font-family="JetBrains Mono, ui-monospace, monospace" font-size="9.5" fill="#5b666f">dispatch authority · raw hash</text>

  <rect x="384" y="560" width="130" height="64" fill="#fafcfe" stroke="#ccd5dc" stroke-dasharray="4 3"></rect>
  <text x="396" y="582" font-family="Archivo, Helvetica, Arial, sans-serif" font-size="12.5" font-weight="600" fill="#1e2328">newstron/</text>
  <text x="396" y="600" font-family="JetBrains Mono, ui-monospace, monospace" font-size="9.5" fill="#5b666f">feeds · pip-audit</text>
  <text x="396" y="614" font-family="JetBrains Mono, ui-monospace, monospace" font-size="9.5" fill="#5b666f">news API, no MCP</text>
  <rect x="530" y="560" width="130" height="64" fill="#fafcfe" stroke="#ccd5dc" stroke-dasharray="4 3"></rect>
  <text x="542" y="582" font-family="Archivo, Helvetica, Arial, sans-serif" font-size="12.5" font-weight="600" fill="#1e2328">dashboard/</text>
  <text x="542" y="600" font-family="JetBrains Mono, ui-monospace, monospace" font-size="9.5" fill="#5b666f">view · token-gated</text>
  <text x="542" y="614" font-family="JetBrains Mono, ui-monospace, monospace" font-size="9.5" fill="#5b666f">mail as operator</text>

  <g fill="none" stroke="#7f8b94" stroke-width="1.3" marker-end="url(#arrA)">
    <path d="M186,92 L186,206"></path>
    <path d="M186,258 L186,310"></path>
    <path d="M306,232 L314,232 L314,446 L306,446"></path>
    <path d="M66,446 L52,446 L52,341 L66,341"></path>
    <path d="M680,242 L662,242 L662,348 L624,348"></path>
    <path d="M680,348 L662,348" marker-end="none"></path>
    <path d="M449,560 L449,372"></path>
    <path d="M595,560 L595,372"></path>
  </g>
  <path d="M306,341 L384,341" fill="none" stroke="#7f8b94" stroke-width="1.3" marker-end="url(#arrA)" marker-start="url(#arrA)"></path>
  <g fill="none" stroke="#9aa5ad" stroke-width="1.3">
    <path d="M444,310 L444,266"></path>
    <path d="M564,310 L564,266"></path>
  </g>
  <path d="M600,266 L600,290 L653,290 L653,500 L186,500 L186,482" fill="none" stroke="#7f8b94" stroke-width="1.3" stroke-dasharray="5 4" marker-end="url(#arrA)"></path>

  <g font-family="JetBrains Mono, ui-monospace, monospace" font-size="10" fill="#5b666f">
    <text x="196" y="152">HTTPS</text>
    <text x="345" y="322" text-anchor="middle">MCP</text>
    <text x="345" y="334" text-anchor="middle">tools</text>
    <text x="672" y="296">findings → news API</text>
    <text x="672" y="308">(with the news feed)</text>
    <text x="196" y="524" text-anchor="start">new mail → ring the pane</text>
    <text x="384" y="642">optional: installed by hand (INSTALL §7)</text>
    <text transform="rotate(-90 44 400)" x="44" y="400" text-anchor="middle">prompt / doorbell</text>
  </g>
  </svg>